<svg xmlns="http://www.w3.org/2000/svg" viewBox="0 0 4.233 4.233"><path d="M-71.613 2.358a1.712 1.71 0 0 0-1.683 1.711 1.712 1.71 0 0 0 1.711 1.711 1.712 1.71 0 0 0 .817-.207c.286.175.668.226.912.226-.142-.22-.3-.432-.382-.674a1.712 1.71 0 0 0 .365-1.056 1.712 1.71 0 0 0-1.712-1.71 1.712 1.71 0 0 0-.028 0z" transform="translate(73.693 -1.962)" fill="none" stroke="#158a88" stroke-width=".264583" stroke-linecap="round" stroke-linejoin="round" stroke-miterlimit="4" stroke-dasharray="none" paint-order="markers fill stroke" class="stroke-000000"></path><g stroke-width=".374178" stroke-miterlimit="4" stroke-dasharray="none"><path d="m-73.83 4.52.589-1.456.589 1.455M-73.63 4.185h.798" transform="translate(75.358 -1.74)" fill="none" stroke="#158a88" stroke-width=".264583" stroke-linecap="round" stroke-linejoin="round" stroke-miterlimit="4" stroke-dasharray="none" paint-order="markers fill stroke" class="stroke-000000"></path></g></svg>